<svg xmlns="http://www.w3.org/2000/svg" viewBox="0 0 1916 821"><path fill="#c39642" stroke="#c39642" d="m358.5 223 59 124 79-76h29l-1 2h-4l-4.5 3.5-2 5v270l5.5 6.5 6.5 2.5-6.5.5h-2l-34.5-.5q7.5-1.5 11-7l1-3v-83l1-1v-14l-1-1 1-3v-45l-1-2v-17l1-5-1-3v-21l1-1v-59l-2.5 1.5-17 16H475q1.1 2.7-1.5 2l-38 37H434q1.1 2.7-1.5 2L402 383.5v30l-2 .5v-3.5l-5-12-11.5-12.5q-8-6.5-20-9h-17q-13.2 2.3-19.5 11.5l-4 9v8q2.9 11.6 11.5 17.5l32 21H436v-60.5l-3.5-4.5-6-1-1.5-1.5 40.5-.5-1 2q-6.4.1-8.5 4.5l-1 3v166l3.5 5.5 7.5 3.5-40.5.5v-1q6.6-.9 9.5-5.5l1-2v-95l1-2.5-51 .5 21 17q13.5 12.5 13 39-3.9 24.1-20.5 35.5-8.8 6.7-21 10l-10 2h-16q-28.2-4.8-42.5-23.5l-8-15q.6-6.1-2-9v-18h1q3.9 30.6 23.5 45.5 7.8 6.7 19 10l9 2h13q16.6-2.9 25.5-13.5l8-14q2.4-7.1 1-18-5.2-17.3-18.5-26.5l-40-25-1 1H279v95.5l3.5 6.5 7.5 3.5-40.5.5v-1q6.6-.9 9.5-5.5l2-8-1-1v-33q2.3-1.2 1-6-2.5-1.5-1-7v-2l1-9-1-2v-2l1-2v-95l-3-7.5-9-3.5 40.5-.5v1q-5.9.6-8.5 4.5l-2 5v56l1.5 1.5h45v-1L313 431.5l-6-11-1-18q2.5-11 9-18l-8-6.5-1.5-3-23-22H281q1.1-2.7-1.5-2l-2.5-4h-1.5l-38-37H236q1.1-2.7-1.5-2l-4-5-9.5-7v254.5l3 6.5 8 3.5-14.5.5q-1.2-2.2-6-1l-1 1h-19l1-2h3l5.5-4.5 2-5v-16l-1-1v-19l1-1v-231l-5.5-7.5-6.5-2.5 30-.5 1.5 3 2.5 1.5q-.7 2.3 1.5 1.5l73 70zm-2.5 35-29 61 4 1 3-1h50l-21-47zm-31 68-3 3-13 29 19 17 16-5h10l1-1q4 2 13 1l18 6h2l4-4q2 1 1-2h2l8-8-1-5-13-29-1-2zm3 119 2 3 8 5h1zm251.5-175 1.5 1.5V561l-3-.5v-289zm224 83q2.3-.7 1.5 1.5l15 32 5 14 2 2 15 37 3.5 4.5 7.5 3.5-5.5.5h-2l-3-1h-17q-1.2 2.2-6 1v-1l5-1 2.5-2.5 1-3-9-23.5h-36.5l-1.5 1.5-7 17-1 7q2.9 4.1 9 5l-6.5.5-3-1-16 1v-1q7.4-1.1 10.5-6.5l30-72 1-5zm-3.5 20-16 38 1 1h31l-11-28zm249.5-20q3.2 2.3 10 1l10 3 15.5 10 10 16.5 3 12v11l-5 17-8 11.5-15.5 10-15 4h-12q-20.3-4.2-31.5-17.5l-6-10-4-12v-18q3.7-17.3 15.5-26.5l13-8 10-3h9zm-7.5 5-9 4-11 12-4 9-2 9v20l3 11 6 11 9 7 13 4 11-1 8-4 10-11 5-12 2-10q1-24-8-36-5-8-14-12l-3-1zm143-5 4 2.5 34 80 6.5 9.5 6.5 2.5-5.5.5-1-1h-21q-1.2 2.2-6 1l1-2q5.1.6 6.5-2.5v-6l-7-15-1-5.5h-37.5l-.5 2.5-6 13-2 10 3.5 3.5 5.5 1.5-5.5.5-1-1h-13q-1.2 2.2-6 1l1-2q6.4-.1 8.5-4.5zm-2 20-16 38 1 1h31zm517.5-20 13 1 12 4q11.2 5.8 18.5 15.5 8.2 11.3 8 31l-2 11-6 13-10.5 10.5q-13 11-38 10-19.6-3.9-30.5-16.5-6.7-7.8-10-19l-1-4v-19q4.1-16.4 15.5-25.5l13-8zm-4.5 5-11 5-10 11-6 17v21q3 12 9 22l11 8 12 3q11 0 18-5l12-14 5-17v-18q-2-2-1-6l-6-14q-6-8-15-12l-3-1zm-1066-3h23.5l1.5 1.5 32.5 69.5 29.5-64.5 4.5-6.5h22l.5 2q-7.3-1-10 3.5l-1 2v21l1 1v13l1 1v16l1 1 1 25 3.5 4.5 6.5 2.5-6.5.5h-2l-2-1h-16q-1.5 2.5-7 1v-1l5-1 3.5-3.5 1-2v-12l-1-1v-14l-1-1-1-35-1.5-5.5-35 76-36-76-.5 10.5-1 1-2 58 2.5 3.5 7.5 2.5-6.5.5-1-1h-12l-5 1 1-2h3l4.5-4.5 1-15 1-1v-19l1-1v-11l1-1 1-29-3-5.5q-3.6-2.6-10-2zm231.5 0h40q1.3 2.3 6 1 12 3 18.5 11.5 4.2 5.8 3 17-2.1 8.9-8.5 13.5l-12.5 5.5 18 27 10.5 12.5 10.5 4.5-14.5.5-10-3-5.5-5.5-15-25-7.5-9.5h-8l-1.5 1.5v34l4.5 5.5 5.5 1.5-6.5.5h-2l-2-1h-16q-1.5 2.5-7 1v-1q5.8-.2 8.5-3.5l2-5v-43l-1-1v-12l1-1v-17l-3.5-6.5-6-1zm23.5 4v42l5 1 11-1 8-4q5-4 6-11v-10l-4-9q-7-11-26-8Zm72.5-4h34l.5 2q-7.3-1-10 3.5l-1 3v76l3.5 5.5 6.5 2.5-6.5.5h-2l-3-1h-16q-1.3 2.2-6 1v-1l8.5-3.5 1-2v-59l1-5-1-3v-13l-2.5-3.5-6-1zm287 0h34l.5 2q-7.5-1.3-10 3.5l-1 4v76l2.5 2.5h24q7.8-1.2 11.5-6.5l4.5-9.5.5 4.5-3.5 16.5-1-1h-20l-4 1h-2l-5-1-3 1-1-1h-20q-1.2 2.2-6 1l1-2q5.1.6 6.5-2.5 2.7-3.8 1-12l1-1v-67l-3.5-5.5-6-1zm76 0h41l12 3 10.5 7.5q4.8 5.2 3 17l-6.5 9.5-11.5 5.5 14.5 5.5 7.5 6.5q5.2 5.3 4 17-2.4 9.6-9.5 14.5-6 4.5-15 6l-22 1-1-1h-20q-1.3 2.2-6 1v-1l7.5-3.5 2-5v-75l-3.5-5.5-6-1zm23.5 4v37l2 1h10l10-3q5-4 7-10 2-13-3-18-4-6-11-7zm0 42v41l7 2 15-1 6-3q6-4 8-13 1-12-3-17-5-6-13-9zm63.5-46h61l.5.5v10l1 1v7.5q-3.7 1.4-2-4.5l-3-6.5-11.5-4h-21l-1.5 1.5V397h22.5l5.5-2 2.5-8 1.5 1.5V412q-3.7 1.4-2-4.5l-2-4.5-4.5-2h-22l-1.5 1.5v38l1 2.5h27.5q6.8-1.2 10.5-5.5l5.5-10.5.5 3.5-3 17.5-2.5-1h-22l-3 1-32-1q-1.2 2.2-6 1v-1l8.5-3.5 1-2v-80l-2.5-3.5-6-1zm79.5 0h40.5l14 4 7.5 5 4 6.5 2 10-2 9-8.5 9.5-10.5 4.5 19 29 9.5 10.5 10.5 4.5-6.5.5-2-1-3 1-1-1-11-1-7.5-6.5-21.5-34.5h-9l-.5.5v36l2.5 3.5 6.5 2.5-5.5.5-2-1h-19q-1.2 2.2-6 1v-1l5-1 3.5-3.5 1-2v-78l-3.5-4.5-6.5-1zm24 4v42h3l3 1 1-1h8l7-3q5-4 7-10v-15l-2-4q-7-12-27-10Zm58-4h75.5l1.5 1.5v19l-2 .5q.4-10.1-6.5-14l-5-2-13-1h-2l-3.5 1.5v80l2.5 4.5 6 1 1.5 1.5-5.5.5-1-1h-21q-1.2 2.2-6 1l1-2q6.5 1 7.5-3.5l1-2V359l-18.5 1q-5.7 1.3-8.5 5.5l-3 10.5-2-.5v-9l1-1z" opacity=".929"/><path fill="#c39642" stroke="#c39642" d="m230.5 379 1.5 3.5v156l-2-1zm997 110q8.5 0 12.5 4.5l-1.5 2.5-6-3h-7q-4.3.7-3.5 6.5l3.5 3.5q9.3.7 14.5 5.5l1 8-3.5 4.5-6 2h-5l-9.5-4 1.5-4 7 4h7l4.5-3.5q1-5.5-2.5-6.5l-9-2-7.5-5.5q-1.3-8.3 3.5-10.5zm341 0q9.4.1 13.5 5.5l-1.5 2.5-8-4h-6l-6.5 5.5q-2.7 3.3-2 10l3 7.5 5.5 3h7l7-4 1.5 2.5q-4.3 5.7-14.5 5.5-8.1-1.4-11.5-7.5l-3-10 3-9 4.5-4.5zM756 490q3.8-1 5 1.5 1.5 5.5-1 7l1 5.5h17v-13.5l4-.5-.5 33-3.5-1v-15h-14.5l-3.5 1v13.5l-4 .5zm50 0h21.5l.5 3h-15.5l-2.5 1v10h14.5l1.5 2.5-3.5 1.5-9-1-3.5 1v9.5l1.5 1.5h16l.5 3h-22zm44 0h17.5l7.5 5.5q1.7 8.7-2.5 11.5l-4.5 2 1 3.5 7 9-4.5.5-9-12H855v10.5q-1.2 2.5-5 1.5zm6 3-2 2 1 1v11l13-1 3-4-1-5-2-3zm42-3h5v1.5l17.5 22.5.5-24q3.8-1 5 1.5v30q0 1-4.5.5l-18-23-1.5.5v22l-2.5 1.5-1.5-1.5zm62 0h5v1.5l13 30-5 .5-2-8h-16.5l-.5 2.5-2 5.5h-5v-1.5l2-2zm3 6-6 14 3 1q6 1 9-1zm37-6q5.6-1 7 3.5l15.5 20.5.5-24 4 .5V522h-5v-1.5l-17.5-22.5-.5 24-4-.5zm52 0h14.5q6.8 1.3 10.5 5.5 4.7 4.8 3 16l-5.5 7.5-7 3H1052zm8 3-4 1v24l2 1q9 1 14-3l4-7q1-7-2-10l-5-5zm42-3h21.5l1.5 1.5-1.5 2.5h-2l-13-1-1.5 1.5v9.5h14.5l.5 3.5-3.5-.5q-7.7-.8-11.5 1v11h17.5l.5 3h-21.5l-1.5-1.5q2.3-3.2 1-10l-1-5 1-3v-2q1.5-5.5-1-7zm43 0h24.5l.5 3.5-19 24 1.5 1.5h18.5l-.5 3H1145v-3.5l17-21 2-4.5h-18.5zm128 0h5v2.5l13 29-5 .5-2-8h-16.5l-.5 2.5-2 5.5h-5v-1.5l5-9zm3 6-7 15h12l1-1zm35-6q3.8-1 5 1.5v26l1.5.5 1 1h14.5l-1.5 3H1311zm53.5 0q3.8-.7 4.5 1.5l12 30.5h-4v-1.5l-3.5-6.5h-15l-1.5 1.5-2 6.5q-5.2 2.1-4-2.5zm.5 6-5 14q4 2 12 1l-5-13q1-3-2-2Zm38-6q4.7-1 6 2.5l9.5 14.5 10.5-17 5 .5V522l-4-.5v-23l-3 2-8.5 12.5-11-15-.5 24-4-.5zm64 0h5v1.5l13 30-3.5.5-3.5-8h-11.5l-1-1-4.5 1-2 8-5-.5zm3 5-6 13 1 3h11zm35-5q6.4-1 8 4.5l14.5 19.5.5-24 4 .5V522h-5v-1.5l-16-22.5-2 .5v23l-4 .5zm109 0h5v1.5l13 30-5 .5-2-8h-16.5l-.5 1.5-2 6.5h-5v-1.5zm3 6-6 13q-2 1 1 2h10l1-1zm-987.5 7h96l.5 3h-96.5l-1.5-1.5zm1030.5 0h90.5l.5 3-91-1z" opacity=".929"/></svg>